<?xml version="1.0" encoding="utf-8"?>
<!-- Generator: Adobe Illustrator 27.0.0, SVG Export Plug-In . SVG Version: 6.00 Build 0)  -->
<svg version="1.1" id="图层_1" xmlns="http://www.w3.org/2000/svg" xmlns:xlink="http://www.w3.org/1999/xlink" x="0px" y="0px"
	 viewBox="0 0 1024 1024" style="enable-background:new 0 0 1024 1024;" xml:space="preserve">
<style type="text/css">
	.st0{fill:#E20613;}
	.st1{fill:#FFFFFF;}
</style>
<path class="st0" d="M485.8,515.3c37.2,0,67.4-30.2,67.4-67.4c0-37.2-30.2-67.4-67.4-67.4c-37.2,0-67.4,30.2-67.4,67.4
	C418.3,485.2,448.5,515.3,485.8,515.3L485.8,515.3z"/>
<path class="st1" d="M539.4,451.8c0,0-1.8,1.3-3,1.3c-0.9,0-1.5-0.8-1.5-1.7c0-2,3.1-11.6,3.1-11.6l-7.5,0.1l-0.4,1.3
	c0,0-1.1-2.2-5-2.2c-7.6,0-11.8,6.6-11.9,10.4l0,1c-0.2,0.2-2.9,3.3-6.2,3.3c-2.6,0-3.1-2.2-3.1-3.6c0-1.5,1.3-7.6,4.9-7.6
	c2,0,3.2,1.7,3.2,1.7l1.1-3.5c0,0-1.7-1.3-5.1-1.3c-7.3,0-12.4,5.5-12.5,10.5c0,0.7-0.1,1-0.1,1c-0.2,0.3-2.1,2.4-4.4,2.4
	c-1.6,0-1.6-1.3-1.6-1.8c0-0.8,3.2-11.6,3.2-11.6l-8.3,0.1l-3,10.5c0,0-4.6,3.3-10.9,3.8c-3.3,0.2-4.4-1.8-4.4-2.9v-0.5
	c0,0,1.3,0.1,2.3,0.1c0.8,0,10.5-0.7,10.5-6.6c0-3.4-3.4-4.7-7.7-4.7c-7.9,0-13.5,4.9-13.5,10.8c0,5.3,4.6,7.6,10.4,7.6
	c6.7,0,13.1-4.1,13.1-4.1s0.4,4.1,5.6,4.1c5.4,0,9.7-4.1,9.7-4.1s2.4,3.9,7.8,3.9c5.5,0,9.7-4.4,9.7-4.4s1.5,4.2,6.9,4.2
	c4.3,0,6.5-2.8,6.5-2.8s1.2,2.8,4.9,2.8c4.5,0,7.9-3.2,7.9-3.2L539.4,451.8L539.4,451.8z M471.3,442c1.1,0.1,1.9,0.9,1.8,1.7
	c-0.2,5.3-6.7,4.5-6.7,4.5S467.5,441.8,471.3,442L471.3,442z M523.5,453.6c-2,0-2-2.2-2-2.9c0-1.7,1.3-8.5,5.1-8.5
	c1.6,0,2.4,1.3,2.4,2.3C528.9,444.7,528,453.6,523.5,453.6L523.5,453.6z"/>
<path class="st1" d="M540.9,458.9c0,0-17.4,6.1-50.7,5.7c-23-0.3-40.5-7.1-40.5-7.1s0.6-1.1,0.9-1.9c2.3-4.7,5-14.2,5-14.2
	s15.8-4.4,15.8-16.9c0-4-3.7-6.5-7.3-6.7c-12.7-0.5-16.3,17.6-17,20.7c0,0.2-0.1,0.3-0.1,0.3c-3.9-0.5-6.1-1.3-6.1-1.3l-0.9,2.4
	c2.6,1.3,6.5,1.7,6.5,1.7c-0.8,4.9-4.5,14.1-4.5,14.1s-3.5-1.1-7.8-1.1c-5.6,0-7.5,2.7-7.7,4.3c-0.4,4.3,5.1,6.4,8.9,6.4
	c7.4,0,11.3-4,11.3-4s20.9,7.9,42.6,7.9c28.5,0,52.5-7.6,52.5-7.6L540.9,458.9L540.9,458.9z M464.6,421.4c2.4,0,3.3,2,3,3.8
	c-1.2,10.5-11.6,12.9-11.6,12.9S458.7,421.4,464.6,421.4z M433.7,461.8c-2.1,0.1-3.5-1.3-3.5-2.1c0-1.7,2.1-2,3.5-1.9
	c3.3,0.2,6,1.3,6,1.3S436.4,461.7,433.7,461.8z"/>
<path class="st1" d="M489.9,430c-2.6,0-4.6,1.1-4.6,3.6c0,2.5,2.3,3.2,4.6,3.2c2.3,0,4.5-1.1,4.5-3.7
	C494.4,430.5,491.8,430,489.9,430z"/>
</svg>
